<?xml version="1.0" standalone="no"?>
<!DOCTYPE svg PUBLIC "-//W3C//DTD SVG 20010904//EN"
 "http://www.w3.org/TR/2001/REC-SVG-20010904/DTD/svg10.dtd">
<svg version="1.0" xmlns="http://www.w3.org/2000/svg"
 width="300.000000pt" height="300.000000pt" viewBox="0 0 300.000000 300.000000"
 preserveAspectRatio="xMidYMid meet">
<metadata>
Created by potrace 1.14, written by Peter Selinger 2001-2017
</metadata>
<g transform="translate(0.000000,300.000000) scale(0.100000,-0.100000)"
fill="#000000" stroke="none">
<path d="M0 1500 l0 -1500 1500 0 1500 0 0 1500 0 1500 -1500 0 -1500 0 0
-1500z m1330 0 l0 -1130 -295 0 -295 0 0 1130 0 1130 295 0 295 0 0 -1130z
m435 505 c297 -69 544 -314 626 -620 28 -104 31 -297 6 -398 -59 -240 -238
-454 -465 -554 -86 -38 -207 -63 -304 -63 l-88 0 0 831 0 832 78 -6 c42 -3
108 -13 147 -22z"/>
</g>
</svg>
